Coordinates
version=1
nRows=4
nColumns=63
inDegrees=yes

Units are S.I. units (second, meters, Newtons, ...)
If the header above contains a line with 'inDegrees', this indicates whether rotational values are in degrees (yes) or radians (no).

endheader
time	pelvis_tilt	pelvis_list	pelvis_rotation	pelvis_tx	pelvis_ty	pelvis_tz	hip_flexion_r	hip_adduction_r	hip_rotation_r	knee_angle_r	knee_angle_r_beta	ankle_angle_r	subtalar_angle_r	mtp_angle_r	hip_flexion_l	hip_adduction_l	hip_rotation_l	knee_angle_l	knee_angle_l_beta	ankle_angle_l	subtalar_angle_l	mtp_angle_l	L5_S1_Flex_Ext	L5_S1_Lat_Bending	L5_S1_axial_rotation	L4_L5_Flex_Ext	L4_L5_Lat_Bending	L4_L5_axial_rotation	L3_L4_Flex_Ext	L3_L4_Lat_Bending	L3_L4_axial_rotation	L2_L3_Flex_Ext	L2_L3_Lat_Bending	L2_L3_axial_rotation	L1_L2_Flex_Ext	L1_L2_Lat_Bending	L1_L2_axial_rotation	L1_T12_Flex_Ext	L1_T12_Lat_Bending	L1_T12_axial_rotation	Abs_r3	Abs_r2	Abs_r1	Abs_t1	Abs_t2	neck_flexion	neck_bending	neck_rotation	arm_flex_r	arm_add_r	arm_rot_r	elbow_flex_r	pro_sup_r	wrist_flex_r	wrist_dev_r	arm_flex_l	arm_add_l	arm_rot_l	elbow_flex_l	pro_sup_l	wrist_flex_l	wrist_dev_l
      3.30508475	      4.01577503	     -1.33796032	     80.97278144	      0.18150247	      0.96489126	      0.49779644	      8.34035285	      4.66028116	     -6.97135250	     10.63701463	      0.18565093	     21.54016965	     -0.60697302	      0.00000000	      4.42580996	     -4.92167916	     -5.49344783	      2.18471460	      0.03813046	     29.85407897	     10.27344921	      0.00000000	     -0.18189855	      0.82520527	      4.10753318	     -0.33780380	      1.09752301	      4.36425401	     -0.29884113	      2.00640409	      4.36425401	     -0.20789186	      2.00640409	      3.59409153	     -0.16891100	      1.68275858	      3.33737071	     -0.10393683	      1.27824296	      3.08064989	     -1.29928318	      9.33488704	     22.84486730	      0.00000000	      0.00000000	     17.13747472	     -5.89675194	     -9.03471273	    -15.35445362	    -20.61079982	     -7.96195217	     83.54402523	     89.11927433	      5.33241139	     29.65518182	     26.89820245	      5.09375615	    162.21633012	      0.18817004	      0.96524373	    -68.87664017	    -14.12955136
      3.32203390	      4.13642295	     -1.32196087	     80.96892549	      0.18163710	      0.96516925	      0.49794587	      8.21567886	      4.79493695	     -6.96427804	     10.51202618	      0.18346947	     21.11766159	     -0.74711211	      0.00000000	      4.33240686	     -5.06595448	     -5.40714179	      2.10973683	      0.03682185	     29.68582548	     10.26885925	      0.00000000	     -0.18857864	      0.84925940	      4.14043178	     -0.35020940	      1.12951500	      4.39920876	     -0.30981585	      2.06488931	      4.39920876	     -0.21552653	      2.06488931	      3.62287781	     -0.17511413	      1.73180977	      3.36410082	     -0.10775384	      1.31550281	      3.10532383	     -1.34699840	      9.60699218	     23.02783942	      0.00000000	      0.00000000	     17.15637494	     -6.33942220	     -8.80839282	    -15.82299437	    -20.64841612	     -8.72568833	     84.29946538	     89.14571717	      4.18560025	     28.91250142	     27.14863076	      5.10299776	    162.20410425	      0.18699466	      0.95808776	    -68.94502218	    -13.26941556
      3.33898305	      4.13287222	     -1.34267030	     80.85734880	      0.18232884	      0.96518013	      0.49811487	      8.19488922	      4.83845336	     -7.04184740	     10.51623236	      0.18354288	     20.98860483	     -0.79370966	      0.00000000	      4.26886394	     -5.12884195	     -5.41675944	      2.17902670	      0.03803119	     29.44608294	     10.26733451	      0.00000000	     -0.18615920	      0.84640342	      4.13421306	     -0.34571626	      1.12571655	      4.39260137	     -0.30584096	      2.05794528	      4.39260137	     -0.21276135	      2.05794528	      3.61743642	     -0.17286744	      1.72598586	      3.35904811	     -0.10637137	      1.31107890	      3.10065979	     -1.32971658	      9.57468480	     22.99325275	      0.00000000	      0.00000000	     17.05703039	     -6.33968167	     -8.78367468	    -15.76844391	    -20.72357392	     -8.95382257	     84.69540825	     89.09001337	      4.11871048	     28.83528128	     27.33025415	      4.78218415	    162.14209369	      0.18666204	      0.92418052	    -68.97679712	    -13.18405075
      3.35593220	      4.21834381	     -1.23893976	     80.88944429	      0.18266295	      0.96534788	      0.49805841	      8.02006644	      4.92264800	     -7.32979474	     10.53183063	      0.18381512	     20.60861585	     -1.03400909	      0.00000000	      4.07830753	     -5.22929330	     -5.59071782	      2.43492866	      0.04249752	     28.60795660	     10.08428168	      0.00000000	     -0.19766687	      0.85853057	      4.16021714	     -0.36708714	      1.14184566	      4.42023072	     -0.32474689	      2.08743123	      4.42023072	     -0.22591346	      2.08743123	      3.64019000	     -0.18355345	      1.75071554	      3.38017643	     -0.11294685	      1.32986386	      3.12016286	     -1.41191465	      9.71186954	     23.13787969	      0.00000000	      0.00000000	     16.86450539	     -6.41723028	     -8.57243508	    -15.99988300	    -20.65578144	     -9.58984265	     85.17050500	     89.02751928	      3.79311088	     28.81299970	     27.53772629	      4.73646239	    162.13074169	      0.19101680	      0.94262008	    -69.03321513	    -13.04480171
